<?xml version="1.0" encoding="utf-8" ?>
<svg xmlns="http://www.w3.org/2000/svg" xmlns:xlink="http://www.w3.org/1999/xlink" width="402" height="397">
	<defs>
		<linearGradient id="gradient_0" gradientUnits="userSpaceOnUse" x1="199.32393" y1="344.81354" x2="197.52856" y2="55.928059">
			<stop offset="0" stop-color="#34C3EF"/>
			<stop offset="1" stop-color="#81DAED"/>
		</linearGradient>
	</defs>
	<path fill="url(#gradient_0)" d="M105.46 56.0925C119.811 55.6005 134.283 56.0009 148.65 56.0012L230.093 56.0023L272.585 56.0129C278.489 56.0099 287.067 55.3948 292.615 56.1734C302.105 57.5054 312.502 61.788 319.948 67.8061C331.736 77.3338 341.405 91.4971 342.897 106.939C343.312 111.236 343.087 115.723 343.077 120.044L343.04 141.521L343.025 213.3L343.012 267.701L343.031 282.729C343.047 286.528 343.23 290.426 342.682 294.194Q342.398 296.156 341.984 298.094Q341.571 300.033 341.029 301.94Q340.488 303.847 339.821 305.714Q339.154 307.58 338.365 309.399Q337.575 311.217 336.667 312.979Q335.759 314.741 334.735 316.438Q333.712 318.136 332.578 319.762Q331.444 321.388 330.205 322.935C320.75 334.562 306.615 343.136 291.558 344.685Q291.127 344.761 290.692 344.812C287.5 345.192 284.119 344.998 280.902 344.995L264.747 344.975L210.227 344.972L140.458 344.978L120.35 344.991C114.652 344.992 108.865 345.138 103.215 344.284Q101.438 344.004 99.6825 343.613Q97.9269 343.221 96.1995 342.72Q94.4722 342.218 92.7801 341.608Q91.088 340.997 89.4379 340.281Q87.7879 339.565 86.1864 338.746Q84.585 337.927 83.0386 337.008Q81.4922 336.089 80.007 335.075Q78.5219 334.06 77.104 332.953C64.8461 323.34 56.1353 309.157 54.3533 293.553C53.8411 289.069 54.0466 284.384 54.0216 279.865L54.0501 254.277L54.0375 184.145L54.0261 130.659Q54.0233 123.77 53.9457 116.882C53.9104 113.043 53.7184 109.066 54.3035 105.258C55.793 95.5659 60.5274 85.5348 66.6625 77.9254C76.069 66.2584 90.4281 57.6968 105.46 56.0925ZM250.765 140.909C248.051 144.405 244.694 147.504 241.591 150.658L224.445 167.923L197.377 195.382C191.582 201.287 185.853 207.301 179.903 213.049C179.072 213.851 177.289 215.805 176.172 216C175.715 216.08 175.245 215.665 174.891 215.392C171.26 212.597 166.447 206.96 163.119 203.515L153.361 193.321C151.364 191.233 149.193 189.181 147.418 186.904C143.142 191.064 138.616 194.978 134.191 198.981C130.417 202.395 126.665 206.062 122.6 209.116C125.12 213.452 129.264 216.949 132.796 220.473L144.662 232.299L164.038 251.676C167.198 254.833 170.503 258.812 174.15 261.359C175.428 260.829 176.729 260.261 177.768 259.326C180.724 256.663 183.472 253.621 186.272 250.787L205.89 230.715C228.178 208.093 250.323 185.224 273.044 163.043C267.583 157.841 262.333 152.378 256.999 147.043C255.026 145.068 252.999 142.527 250.765 140.909ZM253.386 236.853Q252.785 236.901 252.191 237.007Q251.597 237.114 251.017 237.278Q250.437 237.443 249.875 237.663Q249.314 237.884 248.777 238.159Q248.24 238.433 247.733 238.76Q247.225 239.086 246.753 239.46Q246.28 239.835 245.846 240.254Q245.412 240.673 245.022 241.133C242.931 243.621 241.803 246.982 242.149 250.231C242.481 253.352 244.212 256.452 246.682 258.383C249.457 260.551 252.355 261.076 255.796 261.04C259.587 260.055 262.766 258.328 264.779 254.829Q265.075 254.318 265.319 253.781Q265.563 253.243 265.752 252.684Q265.941 252.124 266.073 251.549Q266.205 250.973 266.279 250.388Q266.353 249.802 266.368 249.212Q266.383 248.622 266.339 248.033Q266.295 247.444 266.193 246.863Q266.09 246.281 265.93 245.713Q265.754 245.106 265.52 244.519Q265.285 243.933 264.993 243.372Q264.701 242.812 264.356 242.283Q264.01 241.754 263.613 241.262Q263.217 240.771 262.774 240.32Q262.331 239.87 261.845 239.466Q261.359 239.062 260.836 238.708Q260.313 238.354 259.757 238.053C257.94 237.078 255.435 236.403 253.386 236.853Z"/>
</svg>
